<svg width="32" height="32" viewBox="0 0 32 32" fill="none" xmlns="http://www.w3.org/2000/svg">
<path d="M31.4506 0H0V32H31.4506V0Z" fill="#F16D7F"/>
<g clip-path="url(#clip0_128_232)">
<path d="M15.4007 12.6816C13.2855 12.6816 11.5795 14.3849 11.5795 16.4966C11.5795 18.6083 13.2855 20.3117 15.4007 20.3117C17.5158 20.3117 19.2219 18.6083 19.2219 16.4966C19.2219 14.3849 17.5158 12.6816 15.4007 12.6816ZM15.4007 18.9769C14.0338 18.9769 12.9164 17.8646 12.9164 16.4966C12.9164 15.1287 14.0305 14.0164 15.4007 14.0164C16.7709 14.0164 17.885 15.1287 17.885 16.4966C17.885 17.8646 16.7675 18.9769 15.4007 18.9769ZM20.2695 12.5255C20.2695 13.0203 19.8704 13.4154 19.3782 13.4154C18.8827 13.4154 18.4869 13.0169 18.4869 12.5255C18.4869 12.0341 18.886 11.6357 19.3782 11.6357C19.8704 11.6357 20.2695 12.0341 20.2695 12.5255ZM22.8004 13.4287C22.7438 12.2367 22.4711 11.1808 21.5965 10.3109C20.7251 9.44097 19.6675 9.1687 18.4736 9.10894C17.2431 9.03921 13.5549 9.03921 12.3244 9.10894C11.1338 9.16538 10.0763 9.43765 9.20159 10.3076C8.32694 11.1775 8.05755 12.2333 7.99769 13.4253C7.92785 14.6539 7.92785 18.3361 7.99769 19.5646C8.05423 20.7566 8.32694 21.8124 9.20159 22.6824C10.0763 23.5523 11.1305 23.8246 12.3244 23.8843C13.5549 23.9541 17.2431 23.9541 18.4736 23.8843C19.6675 23.8279 20.7251 23.5556 21.5965 22.6824C22.4678 21.8124 22.7405 20.7566 22.8004 19.5646C22.8702 18.3361 22.8702 14.6572 22.8004 13.4287ZM21.2107 20.8828C20.9513 21.5335 20.4491 22.0349 19.7939 22.2972C18.8128 22.6857 16.4849 22.596 15.4007 22.596C14.3165 22.596 11.9852 22.6824 11.0074 22.2972C10.3556 22.0382 9.85343 21.5369 9.5907 20.8828C9.20159 19.9033 9.29139 17.5791 9.29139 16.4966C9.29139 15.4142 9.20492 13.0867 9.5907 12.1105C9.8501 11.4597 10.3523 10.9583 11.0074 10.696C11.9885 10.3076 14.3165 10.3972 15.4007 10.3972C16.4849 10.3972 18.8162 10.3109 19.7939 10.696C20.4458 10.955 20.9479 11.4564 21.2107 12.1105C21.5998 13.09 21.51 15.4142 21.51 16.4966C21.51 17.5791 21.5998 19.9066 21.2107 20.8828Z" fill="white"/>
</g>
<defs>
<clipPath id="clip0_128_232">
<rect width="14.8991" height="17" fill="white" transform="translate(7.94727 8)"/>
</clipPath>
</defs>
</svg>
