<svg width="32" height="32" viewBox="0 0 32 32" fill="none" xmlns="http://www.w3.org/2000/svg">
<path d="M31.4506 0H0V32H31.4506V0Z" fill="white"/>
<g clip-path="url(#clip0_128_236)">
<path d="M22.2041 12.7405C22.2142 12.8826 22.2142 13.0248 22.2142 13.1669C22.2142 17.5019 18.9369 22.4969 12.947 22.4969C11.1016 22.4969 9.38733 21.9588 7.94531 21.0248C8.20751 21.0552 8.45958 21.0654 8.73186 21.0654C10.2545 21.0654 11.6562 20.5476 12.7755 19.6644C11.3436 19.6339 10.1436 18.6898 9.73016 17.3903C9.93186 17.4207 10.1335 17.441 10.3453 17.441C10.6377 17.441 10.9302 17.4004 11.2024 17.3294C9.71002 17.0248 8.59066 15.705 8.59066 14.1111V14.0705C9.02426 14.3141 9.5285 14.4664 10.0629 14.4867C9.1856 13.8979 8.61084 12.8928 8.61084 11.7557C8.61084 11.1466 8.77215 10.5882 9.05452 10.1009C10.6579 12.0908 13.068 13.3902 15.7704 13.5324C15.72 13.2887 15.6898 13.035 15.6898 12.7811C15.6898 10.974 17.1419 9.50195 18.9469 9.50195C19.8847 9.50195 20.7318 9.89789 21.3267 10.5375C22.0628 10.3954 22.7687 10.1212 23.3939 9.74561C23.1519 10.507 22.6376 11.1466 21.962 11.5527C22.6175 11.4817 23.2528 11.2989 23.8376 11.0451C23.394 11.6948 22.8394 12.2735 22.2041 12.7405Z" fill="black"/>
</g>
<defs>
<clipPath id="clip0_128_236">
<rect width="15.8924" height="16" fill="white" transform="translate(7.94531 8)"/>
</clipPath>
</defs>
</svg>
